<mxfile host="app.diagrams.net" modified="2023-10-19T10:33:34.538Z" agent="Mozilla/5.0 (X11; Linux x86_64; rv:109.0) Gecko/20100101 Firefox/114.0" etag="X5mFz2saUJCj9j7f3Kl_" version="21.6.6" type="github">
  <diagram name="第 1 页" id="mm_VvERldgv7o9KEWgZH">
    <mxGraphModel dx="2074" dy="1078" grid="1" gridSize="10" guides="1" tooltips="1" connect="1" arrows="1" fold="1" page="1" pageScale="1" pageWidth="827" pageHeight="1169" math="0" shadow="0">
      <root>
        <mxCell id="0" />
        <mxCell id="1" parent="0" />
        <mxCell id="IJ-xNeP3UoIB4vwOuqk9-3" value="" style="edgeStyle=orthogonalEdgeStyle;rounded=0;orthogonalLoop=1;jettySize=auto;html=1;" edge="1" parent="1" source="IJ-xNeP3UoIB4vwOuqk9-1" target="IJ-xNeP3UoIB4vwOuqk9-2">
          <mxGeometry relative="1" as="geometry" />
        </mxCell>
        <mxCell id="IJ-xNeP3UoIB4vwOuqk9-1" value="点击重命名" style="rounded=0;whiteSpace=wrap;html=1;" vertex="1" parent="1">
          <mxGeometry x="354" y="80" width="120" height="60" as="geometry" />
        </mxCell>
        <mxCell id="IJ-xNeP3UoIB4vwOuqk9-5" value="" style="edgeStyle=orthogonalEdgeStyle;rounded=0;orthogonalLoop=1;jettySize=auto;html=1;" edge="1" parent="1" source="IJ-xNeP3UoIB4vwOuqk9-2" target="IJ-xNeP3UoIB4vwOuqk9-4">
          <mxGeometry relative="1" as="geometry" />
        </mxCell>
        <mxCell id="IJ-xNeP3UoIB4vwOuqk9-2" value="编辑状态" style="whiteSpace=wrap;html=1;rounded=0;" vertex="1" parent="1">
          <mxGeometry x="354" y="160" width="120" height="60" as="geometry" />
        </mxCell>
        <mxCell id="IJ-xNeP3UoIB4vwOuqk9-7" value="" style="edgeStyle=orthogonalEdgeStyle;rounded=0;orthogonalLoop=1;jettySize=auto;html=1;" edge="1" parent="1" source="IJ-xNeP3UoIB4vwOuqk9-4" target="IJ-xNeP3UoIB4vwOuqk9-6">
          <mxGeometry relative="1" as="geometry" />
        </mxCell>
        <mxCell id="IJ-xNeP3UoIB4vwOuqk9-4" value="必填验证" style="whiteSpace=wrap;html=1;rounded=0;" vertex="1" parent="1">
          <mxGeometry x="354" y="240" width="120" height="60" as="geometry" />
        </mxCell>
        <mxCell id="IJ-xNeP3UoIB4vwOuqk9-9" value="" style="edgeStyle=orthogonalEdgeStyle;rounded=0;orthogonalLoop=1;jettySize=auto;html=1;" edge="1" parent="1" source="IJ-xNeP3UoIB4vwOuqk9-6" target="IJ-xNeP3UoIB4vwOuqk9-8">
          <mxGeometry relative="1" as="geometry" />
        </mxCell>
        <mxCell id="IJ-xNeP3UoIB4vwOuqk9-10" value="否" style="edgeLabel;html=1;align=center;verticalAlign=middle;resizable=0;points=[];" vertex="1" connectable="0" parent="IJ-xNeP3UoIB4vwOuqk9-9">
          <mxGeometry x="-0.0667" y="-2" relative="1" as="geometry">
            <mxPoint as="offset" />
          </mxGeometry>
        </mxCell>
        <mxCell id="IJ-xNeP3UoIB4vwOuqk9-12" value="" style="edgeStyle=orthogonalEdgeStyle;rounded=0;orthogonalLoop=1;jettySize=auto;html=1;" edge="1" parent="1" source="IJ-xNeP3UoIB4vwOuqk9-6" target="IJ-xNeP3UoIB4vwOuqk9-11">
          <mxGeometry relative="1" as="geometry" />
        </mxCell>
        <mxCell id="IJ-xNeP3UoIB4vwOuqk9-13" value="是" style="edgeLabel;html=1;align=center;verticalAlign=middle;resizable=0;points=[];" vertex="1" connectable="0" parent="IJ-xNeP3UoIB4vwOuqk9-12">
          <mxGeometry x="-0.4" y="4" relative="1" as="geometry">
            <mxPoint as="offset" />
          </mxGeometry>
        </mxCell>
        <mxCell id="IJ-xNeP3UoIB4vwOuqk9-6" value="是否填写" style="rhombus;whiteSpace=wrap;html=1;rounded=0;" vertex="1" parent="1">
          <mxGeometry x="374" y="330" width="80" height="80" as="geometry" />
        </mxCell>
        <mxCell id="IJ-xNeP3UoIB4vwOuqk9-8" value="返回错误信息" style="whiteSpace=wrap;html=1;rounded=0;" vertex="1" parent="1">
          <mxGeometry x="180" y="555" width="120" height="60" as="geometry" />
        </mxCell>
        <mxCell id="IJ-xNeP3UoIB4vwOuqk9-15" value="" style="edgeStyle=orthogonalEdgeStyle;rounded=0;orthogonalLoop=1;jettySize=auto;html=1;" edge="1" parent="1" source="IJ-xNeP3UoIB4vwOuqk9-11" target="IJ-xNeP3UoIB4vwOuqk9-14">
          <mxGeometry relative="1" as="geometry" />
        </mxCell>
        <mxCell id="IJ-xNeP3UoIB4vwOuqk9-11" value="验证合法性" style="whiteSpace=wrap;html=1;rounded=0;" vertex="1" parent="1">
          <mxGeometry x="354" y="450" width="120" height="60" as="geometry" />
        </mxCell>
        <mxCell id="IJ-xNeP3UoIB4vwOuqk9-16" style="edgeStyle=orthogonalEdgeStyle;rounded=0;orthogonalLoop=1;jettySize=auto;html=1;" edge="1" parent="1" source="IJ-xNeP3UoIB4vwOuqk9-14" target="IJ-xNeP3UoIB4vwOuqk9-8">
          <mxGeometry relative="1" as="geometry" />
        </mxCell>
        <mxCell id="IJ-xNeP3UoIB4vwOuqk9-17" value="否" style="edgeLabel;html=1;align=center;verticalAlign=middle;resizable=0;points=[];" vertex="1" connectable="0" parent="IJ-xNeP3UoIB4vwOuqk9-16">
          <mxGeometry x="0.3795" relative="1" as="geometry">
            <mxPoint as="offset" />
          </mxGeometry>
        </mxCell>
        <mxCell id="IJ-xNeP3UoIB4vwOuqk9-19" value="" style="edgeStyle=orthogonalEdgeStyle;rounded=0;orthogonalLoop=1;jettySize=auto;html=1;" edge="1" parent="1" source="IJ-xNeP3UoIB4vwOuqk9-14" target="IJ-xNeP3UoIB4vwOuqk9-18">
          <mxGeometry relative="1" as="geometry" />
        </mxCell>
        <mxCell id="IJ-xNeP3UoIB4vwOuqk9-20" value="是" style="edgeLabel;html=1;align=center;verticalAlign=middle;resizable=0;points=[];" vertex="1" connectable="0" parent="IJ-xNeP3UoIB4vwOuqk9-19">
          <mxGeometry x="-0.2" y="1" relative="1" as="geometry">
            <mxPoint as="offset" />
          </mxGeometry>
        </mxCell>
        <mxCell id="IJ-xNeP3UoIB4vwOuqk9-14" value="是否合法" style="rhombus;whiteSpace=wrap;html=1;rounded=0;" vertex="1" parent="1">
          <mxGeometry x="374" y="545" width="80" height="80" as="geometry" />
        </mxCell>
        <mxCell id="IJ-xNeP3UoIB4vwOuqk9-22" value="" style="edgeStyle=orthogonalEdgeStyle;rounded=0;orthogonalLoop=1;jettySize=auto;html=1;" edge="1" parent="1" source="IJ-xNeP3UoIB4vwOuqk9-18" target="IJ-xNeP3UoIB4vwOuqk9-21">
          <mxGeometry relative="1" as="geometry" />
        </mxCell>
        <mxCell id="IJ-xNeP3UoIB4vwOuqk9-18" value="验证要修改的数据是否存在" style="whiteSpace=wrap;html=1;rounded=0;" vertex="1" parent="1">
          <mxGeometry x="354" y="670" width="120" height="60" as="geometry" />
        </mxCell>
        <mxCell id="IJ-xNeP3UoIB4vwOuqk9-23" style="edgeStyle=orthogonalEdgeStyle;rounded=0;orthogonalLoop=1;jettySize=auto;html=1;" edge="1" parent="1" source="IJ-xNeP3UoIB4vwOuqk9-21" target="IJ-xNeP3UoIB4vwOuqk9-8">
          <mxGeometry relative="1" as="geometry" />
        </mxCell>
        <mxCell id="IJ-xNeP3UoIB4vwOuqk9-24" value="否" style="edgeLabel;html=1;align=center;verticalAlign=middle;resizable=0;points=[];" vertex="1" connectable="0" parent="IJ-xNeP3UoIB4vwOuqk9-23">
          <mxGeometry x="-0.0928" y="-3" relative="1" as="geometry">
            <mxPoint as="offset" />
          </mxGeometry>
        </mxCell>
        <mxCell id="IJ-xNeP3UoIB4vwOuqk9-26" value="" style="edgeStyle=orthogonalEdgeStyle;rounded=0;orthogonalLoop=1;jettySize=auto;html=1;" edge="1" parent="1" source="IJ-xNeP3UoIB4vwOuqk9-21" target="IJ-xNeP3UoIB4vwOuqk9-25">
          <mxGeometry relative="1" as="geometry" />
        </mxCell>
        <mxCell id="IJ-xNeP3UoIB4vwOuqk9-27" value="是" style="edgeLabel;html=1;align=center;verticalAlign=middle;resizable=0;points=[];" vertex="1" connectable="0" parent="IJ-xNeP3UoIB4vwOuqk9-26">
          <mxGeometry x="-0.4667" y="2" relative="1" as="geometry">
            <mxPoint as="offset" />
          </mxGeometry>
        </mxCell>
        <mxCell id="IJ-xNeP3UoIB4vwOuqk9-21" value="是否存在" style="rhombus;whiteSpace=wrap;html=1;rounded=0;" vertex="1" parent="1">
          <mxGeometry x="374" y="770" width="80" height="80" as="geometry" />
        </mxCell>
        <mxCell id="IJ-xNeP3UoIB4vwOuqk9-28" style="edgeStyle=orthogonalEdgeStyle;rounded=0;orthogonalLoop=1;jettySize=auto;html=1;entryX=0.5;entryY=1;entryDx=0;entryDy=0;" edge="1" parent="1" source="IJ-xNeP3UoIB4vwOuqk9-25" target="IJ-xNeP3UoIB4vwOuqk9-8">
          <mxGeometry relative="1" as="geometry" />
        </mxCell>
        <mxCell id="IJ-xNeP3UoIB4vwOuqk9-29" value="是" style="edgeLabel;html=1;align=center;verticalAlign=middle;resizable=0;points=[];" vertex="1" connectable="0" parent="IJ-xNeP3UoIB4vwOuqk9-28">
          <mxGeometry x="-0.5398" y="-3" relative="1" as="geometry">
            <mxPoint as="offset" />
          </mxGeometry>
        </mxCell>
        <mxCell id="IJ-xNeP3UoIB4vwOuqk9-31" value="" style="edgeStyle=orthogonalEdgeStyle;rounded=0;orthogonalLoop=1;jettySize=auto;html=1;" edge="1" parent="1" source="IJ-xNeP3UoIB4vwOuqk9-25" target="IJ-xNeP3UoIB4vwOuqk9-30">
          <mxGeometry relative="1" as="geometry" />
        </mxCell>
        <mxCell id="IJ-xNeP3UoIB4vwOuqk9-32" value="否" style="edgeLabel;html=1;align=center;verticalAlign=middle;resizable=0;points=[];" vertex="1" connectable="0" parent="IJ-xNeP3UoIB4vwOuqk9-31">
          <mxGeometry y="-3" relative="1" as="geometry">
            <mxPoint as="offset" />
          </mxGeometry>
        </mxCell>
        <mxCell id="IJ-xNeP3UoIB4vwOuqk9-25" value="验证名称是否存在" style="whiteSpace=wrap;html=1;rounded=0;" vertex="1" parent="1">
          <mxGeometry x="354" y="900" width="120" height="60" as="geometry" />
        </mxCell>
        <mxCell id="IJ-xNeP3UoIB4vwOuqk9-34" value="" style="edgeStyle=orthogonalEdgeStyle;rounded=0;orthogonalLoop=1;jettySize=auto;html=1;" edge="1" parent="1" source="IJ-xNeP3UoIB4vwOuqk9-30" target="IJ-xNeP3UoIB4vwOuqk9-33">
          <mxGeometry relative="1" as="geometry" />
        </mxCell>
        <mxCell id="IJ-xNeP3UoIB4vwOuqk9-30" value="文件夹重命名" style="whiteSpace=wrap;html=1;rounded=0;" vertex="1" parent="1">
          <mxGeometry x="354" y="1000" width="120" height="60" as="geometry" />
        </mxCell>
        <mxCell id="IJ-xNeP3UoIB4vwOuqk9-36" value="" style="edgeStyle=orthogonalEdgeStyle;rounded=0;orthogonalLoop=1;jettySize=auto;html=1;" edge="1" parent="1" source="IJ-xNeP3UoIB4vwOuqk9-33" target="IJ-xNeP3UoIB4vwOuqk9-35">
          <mxGeometry relative="1" as="geometry" />
        </mxCell>
        <mxCell id="IJ-xNeP3UoIB4vwOuqk9-33" value="记录修改" style="whiteSpace=wrap;html=1;rounded=0;" vertex="1" parent="1">
          <mxGeometry x="354" y="1090" width="120" height="60" as="geometry" />
        </mxCell>
        <mxCell id="IJ-xNeP3UoIB4vwOuqk9-35" value="成功" style="whiteSpace=wrap;html=1;rounded=0;" vertex="1" parent="1">
          <mxGeometry x="180" y="1090" width="120" height="60" as="geometry" />
        </mxCell>
      </root>
    </mxGraphModel>
  </diagram>
</mxfile>
